<svg xmlns="http://www.w3.org/2000/svg" width="1040" height="640" viewBox="0 0 1040 640" role="img" aria-labelledby="title desc">
  <title id="title">Reddit Needs Researcher data flow</title>
  <desc id="desc">A read-only workflow from topic configuration to Reddit API collector, local SQLite evidence store, local analyzer, JSONL export, and structured report.</desc>
  <defs>
    <filter id="shadow" x="-20%" y="-20%" width="140%" height="140%">
      <feDropShadow dx="0" dy="12" stdDeviation="16" flood-color="#153d33" flood-opacity="0.16"/>
    </filter>
    <marker id="arrow" viewBox="0 0 10 10" refX="8.6" refY="5" markerWidth="7" markerHeight="7" orient="auto-start-reverse">
      <path d="M 0 0 L 10 5 L 0 10 z" fill="#27614f"/>
    </marker>
  </defs>
  <rect width="1040" height="640" fill="#fbfcf9"/>
  <g filter="url(#shadow)">
    <rect x="54" y="74" width="220" height="112" rx="12" fill="#ffffff" stroke="#d8dfd8"/>
    <text x="82" y="120" font-family="Inter, Arial, sans-serif" font-size="24" font-weight="700" fill="#17201a">Topic config</text>
    <text x="82" y="154" font-family="Inter, Arial, sans-serif" font-size="17" fill="#59655e">subreddits, queries, limits</text>
    <rect x="410" y="74" width="250" height="112" rx="12" fill="#ffffff" stroke="#d8dfd8"/>
    <text x="438" y="120" font-family="Inter, Arial, sans-serif" font-size="24" font-weight="700" fill="#17201a">API collector</text>
    <text x="438" y="154" font-family="Inter, Arial, sans-serif" font-size="17" fill="#59655e">OAuth + rate-limit headers</text>
    <rect x="766" y="74" width="220" height="112" rx="12" fill="#ffffff" stroke="#d8dfd8"/>
    <text x="794" y="120" font-family="Inter, Arial, sans-serif" font-size="24" font-weight="700" fill="#17201a">SQLite store</text>
    <text x="794" y="154" font-family="Inter, Arial, sans-serif" font-size="17" fill="#59655e">local evidence only</text>
    <rect x="218" y="372" width="250" height="112" rx="12" fill="#ffffff" stroke="#d8dfd8"/>
    <text x="246" y="418" font-family="Inter, Arial, sans-serif" font-size="24" font-weight="700" fill="#17201a">Local analyzer</text>
    <text x="246" y="452" font-family="Inter, Arial, sans-serif" font-size="17" fill="#59655e">pain signals + scores</text>
    <rect x="584" y="372" width="250" height="112" rx="12" fill="#ffffff" stroke="#d8dfd8"/>
    <text x="612" y="418" font-family="Inter, Arial, sans-serif" font-size="24" font-weight="700" fill="#17201a">Agent report</text>
    <text x="612" y="452" font-family="Inter, Arial, sans-serif" font-size="17" fill="#59655e">schema-bound summary</text>
  </g>
  <path d="M 274 130 H 397" fill="none" stroke="#27614f" stroke-width="5" marker-end="url(#arrow)"/>
  <path d="M 660 130 H 753" fill="none" stroke="#27614f" stroke-width="5" marker-end="url(#arrow)"/>
  <path d="M 876 186 C 876 272 706 286 706 360" fill="none" stroke="#27614f" stroke-width="5" marker-end="url(#arrow)"/>
  <path d="M 766 186 C 760 286 446 280 350 360" fill="none" stroke="#27614f" stroke-width="5" marker-end="url(#arrow)"/>
  <path d="M 468 428 H 571" fill="none" stroke="#27614f" stroke-width="5" marker-end="url(#arrow)"/>
  <g>
    <rect x="48" y="548" width="944" height="42" rx="21" fill="#eef4f0" stroke="#d8dfd8"/>
    <text x="82" y="575" font-family="Inter, Arial, sans-serif" font-size="18" fill="#153d33">No posting · No voting · No private data · No browser scraping · No model training</text>
  </g>
</svg>

